<svg version="1" xmlns="http://www.w3.org/2000/svg" width="933.333" height="933.333" viewBox="0 0 700.000000 700.000000"><path d="M332.9.4c-.2.2-4.9.6-10.5 1-5.5.4-10.9.8-12 1-1 .2-4.6.7-7.9 1.1-5.1.6-10.1 1.5-28.5 5.1-1.4.3-4.3 1-6.5 1.6-2.2.5-4.9 1.2-6 1.4-7.4 1.4-44.9 14.5-46.8 16.3-.4.5 5.1 11.2 12.4 23.9l13.1 23.1 8.2-2.9c21.7-7.6 46.6-13.6 64.6-15.5 3-.3 6.7-.8 8.3-1.1 1.5-.3 2.8-.2 2.8.3.1.4.2 145.2.3 321.7l.1 321 2.7.7c3.4.9 49.9.6 51.5-.4 1.5-1 1.6-696.4 0-697.4-1-.6-45.2-1.5-45.8-.9zM459.8 18.7c-.2.4-.4 13.2-.4 28.3l.1 27.5 4.3 2c13.6 6.3 35.8 17.8 42.6 22.1 36.8 23.1 70.9 56.8 92.7 91.4 2.9 4.7 5.6 8.7 5.9 9 1.1 1 12.6 23.6 16.5 32.5 6.8 15.2 16.7 47 18.9 60.5.3 1.9.8 4.6 1.1 6 .8 3.8 2.3 14.7 3.2 23 1.4 13.6.8 53.4-1 67-9.3 68.1-38.8 127-87.2 174.1-11.7 11.4-18 16.8-29 24.9-17.8 13.2-38.6 25.5-57 33.5-4.9 2.1-9.4 4.3-10 4.7-1.1 1-1.5 56.8-.4 56.8.3 0 4.1-1.3 8.5-2.9 27.9-10.2 53.8-23.4 78.9-40.4 21.3-14.5 52.2-42.2 68.7-61.7 39.5-46.7 65.4-100.5 77.2-160 1.3-6.9 2.8-15.2 3.1-18.5.4-3.3.9-6.9 1.1-8 1.9-9.5 2.6-51.2 1.1-71-.5-6-1-11.2-1.2-11.5-.1-.3-.6-3-.9-6.1-.4-3.1-.8-6.5-1-7.5-.2-1.1-1.1-6-2-10.9-6.1-33.1-19.3-69.5-37.2-102.1-24.3-44.5-61.6-86.3-103.9-116.3-24-17.1-54.4-33.3-80-42.6-4.9-1.8-9.7-3.6-10.6-4-1-.3-1.9-.3-2.1.2zM136.4 73.2C108.2 95.3 83.6 121 63.2 150c-30.1 42.9-51 94.6-58.7 145.5-.9 6-1.8 12-2 13.2-2.6 16.2-2.6 68.5 0 82.1.1.9.6 4.2.9 7.3.4 3.1.9 6.7 1.1 8 .3 1.3.7 3.9 1 5.8.2 1.8.7 4.1.9 5 .3.9.8 3.1 1.1 4.9 2 11.6 12.6 47.1 17 56.7.7 1.6 2.3 5.3 3.4 8.2 4.5 11.5 15.9 33.2 25.3 48.3 35 56 85.5 101.1 145.3 130 19.1 9.2 43.6 18.7 45.4 17.6.6-.4.9-12.2.8-28.2l-.2-27.7-12-5.1c-14.5-6.3-21.5-9.9-36.3-18.8-18.1-10.9-36.1-24.7-50.4-38.6-4.8-4.7-9.1-8.8-9.5-9.1-.5-.3-3.8-4-7.4-8.1-42.2-48.2-66.1-102.4-73.6-167-1.6-13.7-.8-59.9 1.2-70 .2-1.3.7-4.2 1-6.5 6.4-46.6 29.9-99.6 61.6-139 8.9-11.1 32.7-35 43.3-43.6 4.3-3.5 7.8-6.9 7.8-7.4-.2-1.7-25.5-45.5-26.3-45.5-.4 0-3.7 2.4-7.5 5.2z"/></svg>